<?xml version="1.0" encoding="utf-8"?>
<!-- Generator: Adobe Illustrator 24.0.0, SVG Export Plug-In . SVG Version: 6.00 Build 0)  -->
<svg version="1.1" id="Layer_1" xmlns="http://www.w3.org/2000/svg" xmlns:xlink="http://www.w3.org/1999/xlink" x="0px" y="0px"
	 width="1920px" height="7680px" viewBox="0 0 1920 7680" style="enable-background:new 0 0 1920 7680;" xml:space="preserve">
<style type="text/css">
	.st0{opacity:0.2;fill:none;stroke:#000000;stroke-width:0.3;stroke-miterlimit:10;enable-background:new    ;}
	.st1{opacity:0.4;fill:none;stroke:#000000;stroke-width:0.3;stroke-miterlimit:10;enable-background:new    ;}
	.st2{opacity:0.6;fill:none;stroke:#000000;stroke-width:0.3;stroke-miterlimit:10;enable-background:new    ;}
	.st3{opacity:0.8;fill:none;stroke:#000000;stroke-width:0.3;stroke-miterlimit:10;enable-background:new    ;}
	.st4{fill:none;stroke:#000000;stroke-width:0.3;stroke-miterlimit:10;}
</style>
<title>background</title>
<g>
	<path class="st0" d="M2357.2,1840.6c-126.1-374.8-335.3-810.3-674.2-870.9c-356-63.7-619.5,328-766.5,253.9
		c-156.5-79-126.1-659.3,605.2-2728.9"/>
	<path class="st1" d="M2522.2,1647c-89.3-366.6-254.9-786.2-567.7-873.2c-343.7-95.6-642.3,274.7-818.3,174.4
		c-155.5-88.6-158.6-595.9,434.4-2338.7"/>
	<path class="st2" d="M2687.3,1453.5c-52.6-358.3-174.5-763.9-461.3-875.6c-331.5-129.2-665.6,222.6-870.1,94.8
		c-155.1-96.9-191.1-532.5,263.7-1948.5"/>
	<path class="st3" d="M2852.3,1259.9c-15.8-349.9-93.4-743-354.8-877.9c-318.6-164.5-689.6,171.5-922,15.2
		c-155.2-104.5-223.5-469.1,92.9-1558.3"/>
	<path class="st4" d="M3017.3,1066.3C3038.2,724.7,3006,342.9,2769,186c-304.3-201.6-714.4,121.4-973.7-64.4
		c-155.7-111.6-256.1-405.7-77.8-1168.1"/>
</g>
<g>
	<path class="st0" d="M2818.6,6297.1c-126.1-374.8-335.3-810.3-674.2-870.9c-356-63.7-619.5,328-766.5,253.9
		c-156.5-79-126.1-659.3,605.2-2728.9"/>
	<path class="st1" d="M2983.6,6103.5c-89.3-366.6-254.9-786.2-567.7-873.2c-343.7-95.6-642.3,274.7-818.3,174.4
		C1442.1,5316.1,1439,4808.8,2032,3066"/>
	<path class="st2" d="M3148.7,5910c-52.6-358.3-174.5-763.9-461.3-875.6c-331.5-129.2-665.6,222.6-870.1,94.8
		c-155.1-96.9-191.1-532.5,263.7-1948.5"/>
	<path class="st3" d="M3313.7,5716.4c-15.8-349.9-93.4-743-354.8-877.9c-318.6-164.5-689.6,171.5-922,15.2
		c-155.2-104.5-223.5-469.1,92.9-1558.3"/>
	<path class="st4" d="M3478.7,5522.8c20.9-341.6-11.3-723.4-248.3-880.3c-304.3-201.6-714.4,121.4-973.7-64.4
		c-155.7-111.6-256.1-405.7-77.8-1168.1"/>
</g>
<g>
	<path class="st0" d="M-116.4,1066.3c33.4,394,133.1,866.8,447.9,1006.2c330.7,146.5,679.7-171.3,804.9-64.4
		c133.2,113.9-34.2,670.4-1236.5,2506.8"/>
	<path class="st1" d="M-322.7,1215.1c-0.4,377.3,60.7,824.3,343.9,983.1c311.1,174.6,689.2-114.1,836.3,25.1
		c130,123,12.4,616.5-977.9,2168.4"/>
	<path class="st2" d="M-529.1,1363.8c-34.1,360.5-12.1,783.5,239.9,960.2c291.3,204.3,699.4-58,867.7,114.7
		c127.6,131,59,562.7-719.3,1830"/>
	<path class="st3" d="M-735.4,1512.6c-67.8,343.6-85.9,743.9,135.9,937.1c270.4,235.5,710.6-2.7,899.2,204.4
		c125.9,138.4,105.6,508.8-460.7,1491.6"/>
	<path class="st4" d="M-941.7,1661.5c-101.5,326.8-161,705.4,31.9,914.1c247.7,268.2,722.8,51.9,930.5,294
		c124.7,145.4,152.3,454.9-202.1,1153.1"/>
</g>
<g>
	<path class="st0" d="M-40.4,5716.4c33.4,394,133.1,866.8,447.9,1006.2c330.7,146.5,679.7-171.3,804.9-64.4
		c133.2,113.9-34.2,670.4-1236.5,2506.8"/>
	<path class="st1" d="M-246.7,5865.3c-0.4,377.3,60.7,824.3,343.9,983.1c311.1,174.6,689.2-114.1,836.3,25.1
		c130,123,12.4,616.5-977.9,2168.4"/>
	<path class="st2" d="M-453.1,6014c-34.1,360.5-12.1,783.5,239.9,960.2c291.3,204.3,699.4-58,867.7,114.7
		c127.6,131,59,562.7-719.3,1830"/>
	<path class="st3" d="M-659.3,6162.8c-67.8,343.6-85.9,743.9,135.9,937.1c270.4,235.5,710.6-2.7,899.2,204.4
		c125.9,138.4,105.6,508.8-460.7,1491.6"/>
	<path class="st4" d="M-865.6,6311.6c-101.5,326.8-161,705.4,31.9,914.1c247.7,268.2,722.8,51.9,930.5,294
		c124.7,145.4,152.3,454.9-202.1,1153.1"/>
</g>
</svg>
