<?xml version="1.0" encoding="utf-8"?>
<!-- Generator: Adobe Illustrator 24.0.0, SVG Export Plug-In . SVG Version: 6.00 Build 0)  -->
<svg version="1.1" id="Layer_1" xmlns="http://www.w3.org/2000/svg" xmlns:xlink="http://www.w3.org/1999/xlink" x="0px" y="0px"
	 viewBox="0 0 7680 4320" style="enable-background:new 0 0 7680 4320;" xml:space="preserve">
<style type="text/css">
	.st0{opacity:0.2;}
	.st1{opacity:0.25;}
	.st2{opacity:0.3;}
	.st3{opacity:0.35;}
	.st4{opacity:0.4;}
	.st5{opacity:0.45;}
	.st6{opacity:0.5;fill:none;stroke:#000000;stroke-width:6.3289;stroke-miterlimit:10;}
	.st7{opacity:0.2;fill:none;stroke:#000000;stroke-width:4.0029;stroke-miterlimit:10;}
	.st8{opacity:0.4;fill:none;stroke:#000000;stroke-width:3.2522;stroke-miterlimit:10;}
	.st9{opacity:0.6;fill:none;stroke:#000000;stroke-width:2.5015;stroke-miterlimit:10;}
	.st10{opacity:0.8;fill:none;stroke:#000000;stroke-width:1.7507;stroke-miterlimit:10;}
	.st11{fill:none;stroke:#000000;stroke-miterlimit:10;}
</style>
<title>background</title>
<g>
	<g class="st0">
		<path d="M2860.2,4761.7c428.5-51.9,856.4-109,1282.6-177.1c213.1-34.2,425.7-71.2,637.4-113.3c105.8-21.1,211.4-43.4,316.5-67.6
			c105.1-24.2,209.9-50.3,313.7-79.4c51.9-14.6,103.6-29.9,155-46.4c51.4-16.4,102.4-33.9,152.8-53.1
			c50.4-19.1,100.2-39.8,148.8-63.3c24.3-11.7,48.2-24.2,71.5-37.6c11.7-6.7,23.2-13.7,34.5-20.9c5.6-3.7,11.3-7.3,16.8-11.2
			c5.6-3.7,11-7.7,16.5-11.6c10.8-8,21.4-16.3,31.5-25.1c10.1-8.8,19.8-18.1,28.9-28c9-9.9,17.4-20.4,24.7-31.6
			c7.3-11.2,13.5-23.1,17.9-35.7c4.5-12.5,7.2-25.7,7.7-39l0.1-2.5c0-0.8,0-1.7,0-2.5l-0.1-5c0-0.8-0.1-1.7-0.1-2.5l-0.2-2.5
			l-0.2-2.5c-0.1-0.8-0.1-1.7-0.3-2.5l-0.7-4.9c-0.1-0.8-0.2-1.6-0.4-2.5l-0.5-2.4l-1-4.9c-0.4-1.6-0.9-3.2-1.3-4.8
			c-1.7-6.4-4.1-12.6-6.7-18.8c-0.7-1.5-1.4-3-2.1-4.5c-0.7-1.5-1.4-3-2.2-4.5l-2.4-4.4l-1.2-2.2l-1.3-2.1
			c-6.8-11.5-14.8-22.3-23.5-32.5c-17.5-20.3-37.8-38.1-59.1-54.5c-21.4-16.3-43.9-31.2-66.9-45c-46.1-27.8-94.4-52-143.3-74.6
			c-48.9-22.6-98.7-43.6-148.7-63.8c-50-20.2-100.3-39.6-150.8-58.8c-100.9-38.3-202.2-75.5-302.6-115.1
			c-50.2-19.8-100.2-40.2-149.7-61.8c-24.7-10.8-49.3-21.9-73.7-33.5c-24.4-11.6-48.6-23.6-72.5-36.2
			c-47.7-25.3-94.4-52.8-137.7-85.4c-10.8-8.2-21.3-16.7-31.5-25.6c-2.5-2.3-5.1-4.5-7.6-6.8l-7.4-6.9l-7.2-7.1
			c-2.4-2.4-4.7-4.9-7-7.3c-18.5-19.8-35.1-41.7-46.8-66.3c-5.8-12.3-10.5-25.2-13.3-38.6c-2.8-13.3-3.9-27.1-3.2-40.7
			c0.4-6.8,1.1-13.6,2.4-20.3l0.5-2.5c0.2-0.8,0.4-1.7,0.6-2.5l1.1-5c0.9-3.3,1.7-6.6,2.8-9.8c4.1-13,9.9-25.4,16.6-37.2
			c6.8-11.8,14.7-22.9,23.3-33.4c8.6-10.5,17.9-20.4,27.7-29.8c19.5-18.8,40.9-35.6,63-51.1c22.2-15.5,45.2-29.7,68.8-42.9
			c23.5-13.3,47.6-25.7,71.9-37.4c48.7-23.4,98.5-44.4,148.9-63.8c50.4-19.4,101.3-37.4,152.6-54.3c51.2-17,102.8-32.9,154.6-48.2
			c103.5-30.6,207.8-58.5,312.4-85.1c104.6-26.6,209.5-51.8,314.6-76.3c105.1-24.5,210.3-48.4,315.6-72.2
			c210.5-47.5,421.2-94.3,631.1-144.4c105-25.1,209.7-50.9,314-78.4c104.3-27.5,208.2-56.6,311.2-88.8
			c51.5-16.1,102.7-33,153.6-50.9c50.8-18,101.3-37.1,151-58c49.7-20.9,98.8-43.4,146.3-68.9c23.7-12.8,47.1-26.3,69.8-40.9
			c22.7-14.6,44.7-30.2,65.5-47.3c20.8-17.1,40.3-35.8,57.4-56.7c2.2-2.6,4.2-5.3,6.3-7.9c2.1-2.7,4-5.4,6-8.1
			c3.8-5.5,7.6-11.1,11-16.9c3.5-5.7,6.6-11.7,9.6-17.7l2.1-4.6l1.1-2.3l1-2.3l1.9-4.7c0.6-1.6,1.2-3.1,1.8-4.7
			c4.7-12.6,7.8-25.8,9.6-39.1l0.5-5c0.1-0.8,0.2-1.7,0.2-2.5l0.1-2.5c0.1-1.7,0.2-3.4,0.3-5l0-5c0-1.7,0-3.4,0-5l-0.3-5l-0.3-5
			l-0.6-5c-1.5-13.4-4.6-26.5-8.9-39.2c-4.3-12.7-9.9-25-16.3-36.9c-6.5-11.8-13.8-23.1-21.8-34c-3.9-5.5-8.1-10.7-12.3-16l-6.5-7.7
			c-2.2-2.6-4.5-5-6.7-7.6c-9-10-18.4-19.7-28.2-28.9l-3.7-3.5l-3.7-3.4l-7.5-6.8c-5.1-4.4-10.1-8.9-15.3-13.2
			c-10.3-8.7-20.9-17-31.6-25.2c-5.4-4-10.8-8.1-16.3-12l-8.2-5.9l-8.3-5.8c-11-7.7-22.3-15.2-33.6-22.5
			c-11.4-7.3-22.8-14.4-34.3-21.4c-46.2-27.9-93.8-53.3-142.2-77.2c-48.4-23.9-97.5-46.2-147.1-67.5
			c-99.2-42.4-200.2-80.6-302-116.5c101.8,35.7,202.9,73.7,302.2,116c49.6,21.2,98.8,43.4,147.2,67.3
			c48.4,23.8,96.1,49.3,142.3,77.1c11.6,6.9,23,14.1,34.4,21.4c11.3,7.3,22.6,14.8,33.7,22.5l8.3,5.8l8.2,5.9
			c5.5,3.9,10.9,8,16.3,12c10.7,8.2,21.4,16.5,31.7,25.2c5.2,4.3,10.2,8.8,15.4,13.2l7.5,6.8l3.7,3.4l3.7,3.5
			c9.8,9.2,19.3,18.9,28.3,29c2.2,2.5,4.5,5,6.7,7.6l6.5,7.7c4.2,5.3,8.5,10.5,12.4,16c8,10.9,15.4,22.2,21.9,34.1
			c6.5,11.9,12,24.2,16.4,37.1c4.4,12.8,7.5,26.1,9,39.5l0.6,5l0.3,5.1l0.3,5.1c0,1.7,0,3.4,0,5.1l0,5.1c-0.1,1.7-0.2,3.4-0.3,5.1
			l-0.1,2.5c-0.1,0.8-0.2,1.7-0.2,2.5l-0.5,5.1c-1.8,13.4-4.9,26.7-9.6,39.4c-0.6,1.6-1.2,3.2-1.8,4.8l-1.9,4.7l-1,2.3l-1.1,2.3
			l-2.1,4.6c-3,6.1-6.1,12.1-9.7,17.8c-3.4,5.8-7.2,11.4-11.1,17c-2,2.7-4,5.5-6,8.2c-2.1,2.7-4.1,5.4-6.3,8
			c-17.1,20.9-36.7,39.7-57.6,56.9c-20.8,17.2-42.9,32.9-65.6,47.5c-22.7,14.7-46.1,28.2-69.8,41c-47.5,25.6-96.6,48.2-146.4,69.2
			c-49.8,20.9-100.2,40.1-151.1,58.1c-50.9,18-102.1,34.9-153.6,51.1c-103,32.2-207,61.4-311.3,89c-104.3,27.6-209.1,53.5-314,78.7
			c-209.9,50.2-420.6,97.2-631.1,144.8c-105.2,23.8-210.5,47.8-315.5,72.4c-105.1,24.6-210,49.9-314.5,76.5
			c-104.6,26.6-208.8,54.6-312.2,85.1c-51.7,15.3-103.3,31.3-154.4,48.2c-51.2,17-102.1,34.9-152.4,54.3
			c-50.3,19.4-100,40.3-148.6,63.7c-24.3,11.7-48.2,24.1-71.7,37.3c-23.5,13.2-46.4,27.4-68.5,42.8c-22,15.4-43.2,32.1-62.6,50.7
			c-9.7,9.3-18.9,19.1-27.4,29.5c-8.4,10.4-16.2,21.3-22.9,32.9c-6.6,11.6-12.3,23.8-16.3,36.5c-1.1,3.2-1.9,6.4-2.8,9.6l-1.1,4.9
			c-0.2,0.8-0.4,1.6-0.5,2.4l-0.4,2.5c-1.3,6.5-2,13.2-2.4,19.8c-0.6,13.3,0.4,26.7,3.2,39.7c2.7,13.1,7.3,25.7,13,37.8
			c11.5,24.2,27.8,45.8,46.2,65.4c2.3,2.4,4.6,4.9,7,7.3l7.2,7.1l7.4,6.9c2.5,2.3,5,4.5,7.5,6.7c10.1,8.9,20.6,17.3,31.3,25.5
			c43,32.4,89.6,59.9,137.2,85c23.8,12.6,48,24.6,72.3,36.1c24.4,11.6,48.9,22.7,73.6,33.4c49.4,21.6,99.4,42,149.5,61.7
			c100.4,39.5,201.7,76.8,302.6,115.1c50.4,19.2,100.8,38.6,150.9,58.8c50,20.2,99.8,41.2,148.8,63.8c49,22.7,97.4,46.9,143.7,74.8
			c23.2,13.9,45.7,28.9,67.3,45.3c21.4,16.5,41.9,34.5,59.6,55.1c8.8,10.3,17,21.3,23.9,33l1.3,2.2l1.2,2.3l2.4,4.5
			c0.8,1.5,1.5,3.1,2.2,4.6c0.7,1.5,1.5,3.1,2.2,4.6c2.6,6.3,5.1,12.7,6.9,19.3c0.4,1.7,0.9,3.3,1.4,4.9l1.1,5l0.5,2.5
			c0.2,0.8,0.3,1.7,0.4,2.5l0.7,5.1c0.1,0.8,0.2,1.7,0.3,2.6l0.2,2.6l0.2,2.6c0.1,0.9,0.2,1.7,0.1,2.6l0.1,5.1c0,0.9,0,1.7,0,2.6
			l-0.1,2.6c-0.6,13.7-3.3,27.2-7.9,40.1c-4.6,12.9-10.9,25.1-18.3,36.5c-7.4,11.4-16,22-25.1,32.1c-9.2,10-19,19.4-29.2,28.3
			c-10.2,8.9-20.9,17.2-31.8,25.3c-5.5,3.9-11,7.9-16.6,11.7c-5.5,3.9-11.2,7.5-16.9,11.2c-11.4,7.2-22.9,14.3-34.7,21
			c-23.4,13.5-47.4,26-71.8,37.7c-48.7,23.5-98.6,44.2-149.1,63.3c-50.5,19.1-101.6,36.7-153,53.1c-51.4,16.4-103.2,31.8-155.1,46.3
			c-104,29.1-208.7,55.1-313.9,79.3c-52.6,12.1-105.3,23.7-158.1,34.9c-52.8,11.2-105.7,22-158.6,32.5
			c-211.8,41.9-424.5,78.6-637.6,112.6c-106.6,16.9-213.3,33.1-320.1,48.7c-106.8,15.6-213.7,30.5-320.6,44.9
			C3288.7,4709.5,3074.5,4736.4,2860.2,4761.7z"/>
	</g>
	<g class="st1">
		<path d="M3427.7,4801.4c393.2-69,786.1-139.9,1177.6-218.4c97.8-19.7,195.6-39.8,293.2-60.7c97.6-20.9,195-42.5,292.2-65
			c48.6-11.3,97.2-22.8,145.6-34.6c48.5-11.8,96.9-23.9,145.2-36.3c96.6-24.9,192.9-51.1,288.6-79.5c95.6-28.5,190.7-59,284.3-93.5
			c46.8-17.3,93.2-35.5,138.9-55.4c45.7-19.9,90.8-41.2,134.5-65.2c21.8-12,43.3-24.7,64.1-38.3c10.4-6.9,20.7-13.8,30.7-21.2
			l3.8-2.7l3.7-2.8l7.4-5.7c4.8-3.9,9.7-7.7,14.4-11.8c4.8-4,9.4-8.1,14-12.3c4.5-4.3,9.1-8.5,13.4-12.9c8.7-8.8,17-18.1,24.6-27.8
			c7.6-9.8,14.4-20.1,20.2-31c5.8-10.9,10.4-22.4,13.5-34.3c3-11.9,4.4-24.2,3.9-36.5c-0.5-12.3-2.6-24.4-6.5-36.1
			c-3.9-11.7-9.2-22.8-15.6-33.4c-6.4-10.6-13.8-20.5-21.8-29.9c-16.1-18.8-34.7-35.5-54.2-50.8c-9.8-7.6-19.9-14.9-30.1-22
			c-10.2-7.1-20.7-13.8-31.3-20.3c-42.4-26.2-86.8-48.9-131.8-70.2c-45.1-21.3-90.9-41-137-60c-92.3-37.9-185.7-72.9-278.9-108.7
			c-46.6-17.9-93.2-35.8-139.5-54.4c-46.3-18.6-92.5-37.7-138.1-58c-45.6-20.3-90.8-41.7-134.8-65.4c-11-5.9-21.9-12-32.8-18.2
			c-10.8-6.3-21.6-12.6-32.2-19.3c-10.6-6.6-21.1-13.4-31.4-20.5c-10.3-7.1-20.5-14.4-30.4-22c-9.9-7.7-19.6-15.6-29-23.9
			c-9.3-8.3-18.4-17-27-26.2c-17.1-18.3-32.5-38.5-43.9-61.1c-5.7-11.3-10.3-23.1-13.5-35.3c-3.2-12.2-5-24.8-5.2-37.4l-0.1-4.7
			l0.2-4.7c0-1.6,0.2-3.2,0.3-4.7c0.1-1.6,0.2-3.2,0.4-4.7c0.7-6.3,1.8-12.5,3.2-18.7c1.5-6.1,3.2-12.2,5.4-18.2
			c2.2-5.9,4.5-11.8,7.3-17.4c11-22.8,26.2-43.1,43.3-61.4c17.1-18.4,36.2-34.8,56.1-49.9c20-15.1,40.8-29,62.3-41.9
			c21.4-12.9,43.3-25,65.5-36.4c44.5-22.8,90.2-43.1,136.4-62c46.2-18.9,93.1-36.3,140.2-52.8c94.3-32.9,189.8-62.2,285.7-89.8
			c95.9-27.6,192.4-53.4,289-78.3c96.6-25,193.5-49.1,290.4-72.9c193.8-47.8,387.9-94.5,581.2-144.3c96.6-25,193.1-50.7,289-78
			c96-27.4,191.5-56.3,286.1-88.1c47.3-16,94.3-32.7,140.9-50.5c46.6-17.8,92.8-36.7,138.2-57.2c45.4-20.5,90.2-42.7,133.4-67.6
			c21.6-12.5,42.8-25.6,63.4-39.6c20.6-14.1,40.5-29,59.4-45.3c18.8-16.3,36.7-33.8,52.5-53c7.9-9.6,15.2-19.7,21.9-30.2
			c3.4-5.2,6.5-10.6,9.5-16.1c2.9-5.5,5.7-11,8.2-16.7l1.9-4.3l1.7-4.3l0.9-2.2l0.8-2.2l1.6-4.4c1.9-5.9,3.7-11.8,5.1-17.9
			c1.5-6,2.5-12.2,3.4-18.3l0.5-4.6l0.3-2.3l0.2-2.3l0.4-4.6c0.1-1.5,0.1-3.1,0.2-4.7c0.5-12.4-0.2-24.8-2.1-37.1
			c-1.9-12.3-4.9-24.4-8.9-36.1c-4-11.8-8.8-23.3-14.4-34.4c-5.6-11.1-12-21.8-18.8-32.2c-6.8-10.4-14.3-20.4-22-30.2
			c-7.7-9.8-16-19.1-24.5-28.2l-6.4-6.8l-6.6-6.7c-1.1-1.1-2.2-2.2-3.3-3.3l-3.4-3.3c-2.2-2.2-4.5-4.4-6.7-6.5
			c-4.6-4.2-9.1-8.5-13.7-12.7l-7-6.2l-7.1-6.1c-2.3-2.1-4.7-4.1-7.1-6l-7.2-6l-7.3-5.9c-2.4-2-4.9-3.9-7.3-5.8
			c-4.9-3.8-9.8-7.7-14.8-11.4c-2.5-1.9-5-3.8-7.5-5.6l-7.5-5.5c-20.1-14.7-40.8-28.7-61.8-42.1c-21-13.5-42.3-26.4-63.9-38.9
			c-43.2-25-87.4-48.2-132.1-70.3c-89.6-44-181.4-83.3-274.3-119.7l0.3-0.7c93,36.3,184.9,75.4,274.6,119.3
			c44.8,22,89.1,45.2,132.3,70.1c21.6,12.5,43,25.4,64,38.8c21,13.4,41.7,27.4,61.9,42.1l7.6,5.5c2.5,1.8,5,3.7,7.5,5.6
			c5,3.7,9.9,7.6,14.9,11.4c2.5,1.9,4.9,3.9,7.3,5.8l7.3,5.9l7.2,6c2.4,2,4.8,4,7.2,6l7.1,6.1l7,6.2c4.7,4.1,9.2,8.4,13.8,12.7
			c2.3,2.1,4.5,4.3,6.7,6.5l3.4,3.3c1.1,1.1,2.2,2.2,3.3,3.3l6.6,6.7l6.4,6.8c8.5,9.1,16.8,18.5,24.6,28.3
			c7.8,9.8,15.3,19.8,22.1,30.3c6.9,10.5,13.3,21.2,18.9,32.4c5.6,11.2,10.5,22.7,14.5,34.6c4,11.9,7.1,24.1,9,36.4
			c1.9,12.4,2.6,25,2.1,37.5c-0.1,1.6-0.1,3.1-0.2,4.7l-0.4,4.7l-0.2,2.3l-0.3,2.3l-0.5,4.7c-0.9,6.2-1.9,12.4-3.5,18.5
			c-1.4,6.1-3.2,12.1-5.2,18.1l-1.6,4.4l-0.8,2.2l-0.9,2.2l-1.7,4.4l-1.9,4.3c-2.5,5.8-5.3,11.4-8.2,16.9c-3,5.5-6.1,10.9-9.5,16.2
			c-6.7,10.6-14.1,20.7-22,30.4c-15.9,19.4-33.8,37-52.7,53.3c-18.9,16.4-38.9,31.4-59.5,45.5c-20.6,14.1-41.9,27.3-63.5,39.8
			c-43.3,24.9-88.1,47.2-133.5,67.8c-45.5,20.6-91.7,39.6-138.3,57.4c-46.6,17.9-93.7,34.6-141,50.6
			c-94.6,31.9-190.2,60.9-286.1,88.3c-96,27.4-192.4,53.2-289,78.2c-193.3,50-387.3,96.8-581.1,144.7
			c-96.9,23.9-193.7,48.1-290.3,73.1c-96.6,25-193,50.9-288.9,78.5c-95.9,27.6-191.3,56.9-285.5,89.8c-47.1,16.5-93.8,33.9-140,52.7
			c-46.1,18.9-91.7,39.2-136.1,61.9c-22.2,11.4-44,23.4-65.3,36.3c-21.3,12.9-42.1,26.6-61.9,41.7c-19.8,15-38.7,31.3-55.6,49.5
			c-16.9,18.1-31.9,38.2-42.6,60.4c-2.7,5.5-5,11.3-7.2,17c-2.1,5.8-3.8,11.7-5.3,17.7c-1.3,6-2.4,12.1-3.1,18.2
			c-0.2,1.5-0.3,3.1-0.4,4.6c-0.1,1.5-0.3,3.1-0.3,4.6l-0.2,4.6l0.1,4.6c0.2,12.3,2,24.6,5.1,36.5c3.1,11.9,7.6,23.5,13.2,34.5
			c11.1,22.1,26.3,42,43.2,60.1c8.5,9.1,17.4,17.7,26.7,25.9c9.3,8.3,18.9,16.1,28.8,23.7c9.8,7.6,19.9,14.9,30.2,21.9
			c10.2,7.1,20.7,13.8,31.3,20.4c10.5,6.6,21.3,12.9,32,19.2c10.8,6.2,21.7,12.3,32.7,18.1c43.9,23.6,89,45,134.5,65.2
			c45.6,20.3,91.7,39.3,138,57.9c46.3,18.5,92.9,36.5,139.5,54.3c93.2,35.7,186.7,70.7,279.1,108.6c46.2,19,92.1,38.7,137.3,60
			c45.1,21.4,89.7,44.2,132.3,70.5c10.6,6.6,21.2,13.3,31.5,20.4c10.3,7.1,20.4,14.5,30.3,22.2c19.7,15.5,38.5,32.3,54.8,51.4
			c8.2,9.6,15.7,19.7,22.2,30.5c6.5,10.8,12,22.3,16,34.3c4,12,6.2,24.6,6.7,37.3c0.5,12.7-1,25.4-4.1,37.7
			c-3.2,12.3-8,24.1-13.8,35.2c-5.9,11.2-12.9,21.7-20.6,31.7c-7.7,9.9-16.1,19.3-25,28.2c-4.4,4.5-9,8.8-13.5,13.1
			c-4.7,4.2-9.3,8.4-14.2,12.4c-4.7,4.1-9.7,7.9-14.6,11.9l-7.5,5.7l-3.7,2.8l-3.8,2.8c-10.1,7.5-20.4,14.4-30.9,21.4
			c-21,13.7-42.5,26.4-64.4,38.4c-43.8,24.1-89.1,45.4-134.9,65.3c-45.8,19.9-92.3,38.1-139.2,55.4
			c-93.7,34.5-188.8,65.1-284.5,93.5c-95.7,28.4-192.1,54.6-288.7,79.5c-96.7,24.8-193.7,48.3-291,70.7
			c-97.3,22.5-194.7,43.9-292.4,64.7c-97.6,20.8-195.4,40.8-293.3,60.4c-97.9,19.5-195.9,38.6-293.9,57.2
			c-98.1,18.6-196.2,36.8-294.4,54.7c-196.4,35.8-393,70.4-589.7,104.3L3427.7,4801.4z"/>
	</g>
	<g class="st2">
		<path d="M3995.1,4841.1c358.4-80.8,716.6-162.6,1073.5-249.9c178.4-43.7,356.5-88.9,533.8-136.9c177.3-48.1,353.9-98.6,528.7-155
			c87.4-28.3,174.3-58,260.2-90.3c21.5-8.1,42.9-16.4,64.2-24.8c21.3-8.4,42.6-17.1,63.8-26c42.3-17.7,84.3-36.4,125.6-56.4
			c41.3-20,81.9-41.4,121.2-65c19.7-11.8,38.9-24.2,57.6-37.4c18.7-13.2,36.8-27.2,54-42.3c8.5-7.6,16.9-15.4,24.8-23.6
			c7.9-8.2,15.5-16.8,22.5-25.7c7-8.9,13.5-18.4,19.1-28.2c5.7-9.8,10.5-20.1,14.2-30.8c3.7-10.7,6.2-21.8,7.2-33
			c1.1-11.2,0.5-22.6-1.4-33.7c-1.9-11.1-5.3-22-9.7-32.4c-4.5-10.4-10.1-20.3-16.4-29.7c-12.7-18.8-28.4-35.6-45.3-50.9
			c-2.1-1.9-4.2-3.8-6.4-5.7l-6.5-5.6l-6.6-5.4c-2.2-1.8-4.5-3.5-6.7-5.3c-9-7-18.3-13.7-27.7-20.2c-18.9-12.9-38.4-25-58.3-36.3
			c-19.9-11.4-40.2-22.1-60.6-32.4c-41-20.6-82.8-39.5-125-57.6c-42.2-18.1-84.8-35.3-127.4-52.2c-85.4-33.8-171.3-66.3-256.6-100.6
			c-42.6-17.2-85.1-34.8-127.1-53.4c-42-18.6-83.7-38.2-124.4-59.6c-20.3-10.7-40.5-21.9-60.2-33.8c-19.7-11.8-39.1-24.4-57.7-37.9
			c-18.7-13.5-36.7-27.9-53.5-43.8c-16.8-15.8-32.3-33.2-45.3-52.4c-13-19.2-23.3-40.4-28.8-63c-2.8-11.3-4.3-22.9-4.6-34.6
			c-0.4-11.6,0.8-23.3,3.2-34.7c1.2-5.7,2.7-11.3,4.5-16.9c0.4-1.4,1-2.7,1.4-4.1c0.5-1.4,1-2.7,1.5-4.1l1.6-4.1l1.7-4
			c0.6-1.3,1.2-2.7,1.8-4c0.6-1.3,1.2-2.6,1.9-3.9c1.4-2.6,2.6-5.2,4.1-7.7c2.8-5.1,5.9-10,9-14.9c6.4-9.6,13.6-18.8,21.1-27.5
			c7.6-8.7,15.7-17,24.1-24.9c16.8-15.8,34.9-30.2,53.7-43.5c18.8-13.3,38.2-25.7,58.1-37.3c39.7-23.3,81-43.8,122.8-62.8
			c41.9-19,84.5-36.4,127.4-52.9c42.9-16.4,86.2-31.9,129.7-46.7c87-29.6,174.8-56.7,263-82.7c88.1-25.9,176.6-50.7,265.2-75
			c177.1-48.7,354.7-95.8,531.5-145.9c88.4-25.1,176.5-50.9,264.2-78.3c87.6-27.4,174.8-56.3,261-88.1
			c43.1-15.9,85.8-32.6,128.2-50.3c42.3-17.8,84.2-36.5,125.4-56.9c41.1-20.4,81.5-42.2,120.4-66.6c9.7-6.1,19.3-12.3,28.8-18.8
			c9.5-6.4,18.9-13,28.1-19.9c18.4-13.6,36.3-28,53.2-43.5c16.9-15.5,32.8-32,47.1-49.9c14.3-17.8,27-37,37-57.6
			c5-10.3,9.3-20.9,12.8-31.8c3.5-10.9,6.1-22,7.9-33.3c0.8-5.6,1.5-11.3,1.9-17c0.2-2.8,0.4-5.7,0.5-8.5l0.1-8.6
			c-0.1-11.4-1.1-22.8-2.8-34.1c-1.7-11.3-4.4-22.4-7.6-33.4c-3.3-10.9-7.2-21.7-11.8-32.2c-4.6-10.5-9.7-20.7-15.3-30.7
			c-5.7-9.9-11.7-19.7-18.2-29.1c-1.6-2.4-3.3-4.7-4.9-7c-1.7-2.3-3.3-4.7-5-7l-5.1-6.9l-5.3-6.8c-1.8-2.3-3.6-4.5-5.4-6.7
			c-1.8-2.2-3.6-4.4-5.5-6.6c-3.8-4.3-7.4-8.7-11.3-12.9c-7.6-8.6-15.6-16.8-23.6-25c-4.1-4-8.1-8.1-12.3-12l-6.2-5.9l-6.3-5.8
			c-16.9-15.5-34.5-30.3-52.5-44.5c-18-14.2-36.4-27.9-55.2-41.1c-37.6-26.3-76.4-50.9-116.1-74c-79.4-46.2-161.7-87.1-245.5-124.6
			l0.6-1.5c83.9,37.4,166.4,78.3,245.8,124.4c39.7,23.1,78.7,47.6,116.3,73.9c18.8,13.2,37.3,26.8,55.4,41.1
			c18,14.2,35.7,29,52.6,44.6l6.3,5.8l6.3,5.9c4.2,3.9,8.2,8,12.4,12c8.1,8.2,16.1,16.4,23.8,25c3.9,4.2,7.6,8.6,11.4,13
			c1.9,2.2,3.7,4.4,5.5,6.6c1.8,2.2,3.7,4.4,5.4,6.7l5.3,6.8l5.2,6.9c1.8,2.3,3.4,4.6,5.1,7c1.6,2.4,3.4,4.7,5,7.1
			c6.5,9.5,12.6,19.3,18.3,29.3c5.7,10,10.8,20.4,15.5,30.9c4.7,10.5,8.6,21.4,12,32.4c3.3,11,6,22.3,7.8,33.7
			c1.8,11.4,2.7,22.9,2.9,34.5l-0.1,8.7c-0.1,2.9-0.3,5.8-0.5,8.6c-0.3,5.8-1,11.5-1.9,17.2c-1.8,11.4-4.4,22.7-7.9,33.7
			c-3.5,11-7.9,21.7-12.9,32.1c-10,20.8-22.8,40.2-37.2,58.1c-14.4,18-30.4,34.7-47.4,50.2c-17,15.6-34.8,30.1-53.3,43.8
			c-9.2,6.8-18.6,13.5-28.2,20c-9.5,6.5-19.2,12.7-28.9,18.8c-39,24.5-79.4,46.4-120.6,66.9c-41.2,20.4-83.1,39.3-125.5,57.1
			c-42.4,17.8-85.2,34.5-128.3,50.5c-86.2,31.9-173.4,60.9-261.1,88.4c-87.7,27.4-175.8,53.3-264.2,78.4
			c-176.7,50.2-354.3,97.4-531.4,146.2c-88.5,24.4-177,49.2-265.1,75.2c-88.1,26-175.8,53.1-262.7,82.7
			c-43.5,14.8-86.7,30.3-129.5,46.7c-42.8,16.4-85.3,33.8-127.1,52.8c-41.8,19-82.9,39.4-122.4,62.6c-19.8,11.6-39.1,23.9-57.8,37.2
			c-18.6,13.3-36.6,27.5-53.2,43.2c-8.3,7.8-16.3,16-23.8,24.6c-7.5,8.6-14.5,17.6-20.8,27.1c-12.5,18.9-22.4,39.8-27,62
			c-2.3,11.1-3.4,22.4-3.1,33.7c0.3,11.3,1.8,22.6,4.4,33.6c5.4,22,15.4,42.8,28.2,61.6c12.8,18.8,28.1,36,44.7,51.6
			c16.6,15.7,34.5,30,53,43.4c18.6,13.4,37.8,25.9,57.4,37.7c19.6,11.8,39.7,22.9,60,33.6c40.6,21.3,82.1,40.9,124.1,59.4
			c42,18.6,84.4,36.1,127,53.3c85.2,34.3,171.1,66.7,256.6,100.5c42.7,16.9,85.3,34.1,127.6,52.2c42.2,18.1,84.2,37,125.3,57.7
			c20.5,10.4,40.9,21.1,60.9,32.5c20,11.4,39.6,23.5,58.6,36.5c9.5,6.5,18.8,13.3,28,20.3c2.3,1.8,4.6,3.5,6.8,5.3l6.7,5.5l6.6,5.6
			c2.2,1.9,4.3,3.8,6.5,5.7c17.1,15.5,33,32.5,46.1,51.8c6.5,9.6,12.2,19.8,16.8,30.5c4.6,10.7,8.1,21.9,10.1,33.4
			c2,11.5,2.6,23.3,1.5,34.9c-1.1,11.6-3.7,23.1-7.5,34.1c-3.8,11-8.8,21.6-14.6,31.7c-5.8,10.1-12.3,19.7-19.5,28.8
			c-7.2,9.1-14.8,17.8-22.8,26.1c-8,8.3-16.5,16.2-25.1,23.9c-17.3,15.2-35.6,29.4-54.4,42.6c-18.8,13.3-38.2,25.8-57.9,37.6
			c-39.5,23.7-80.2,45.1-121.6,65.2c-41.4,20.1-83.4,38.7-125.8,56.5c-21.2,8.9-42.5,17.5-63.9,26c-21.4,8.4-42.8,16.7-64.3,24.8
			c-86,32.3-173,62-260.4,90.3c-87.4,28.2-175.4,54.9-263.6,80.6c-88.2,25.6-176.7,50.3-265.4,74.2
			c-177.4,47.8-355.6,92.8-534,136.3c-178.5,43.5-357.3,85.5-536.4,126.7c-179,41.1-358.3,81.5-537.6,121.4L3995.1,4841.1z"/>
	</g>
	<g class="st3">
		<path d="M4562.5,4880.7c324.6-88.1,648.9-177.5,971.9-271.5c161.5-47,322.6-95.3,483-145.7c160.4-50.5,320.2-102.8,478.6-159.5
			c79.1-28.3,157.9-57.8,236-88.9c78.1-31.1,155.5-63.9,231.6-99.7c38-17.9,75.7-36.5,112.7-56.3c37-19.8,73.5-40.6,108.9-63.2
			c35.4-22.6,69.6-46.9,101.4-74.2c15.8-13.7,31-28.2,44.9-43.8c13.9-15.6,26.5-32.3,36.8-50.4c10.3-18.1,17.9-37.7,21-58.1
			c3.2-20.4,1.5-41.5-4.7-61.2c-6.1-19.8-16.3-38.1-28.8-54.8c-6.2-8.3-13-16.2-20.2-23.8c-7.2-7.5-14.8-14.7-22.6-21.6
			c-3.9-3.5-7.9-6.8-11.9-10.2c-4.1-3.3-8.1-6.6-12.3-9.7c-8.3-6.4-16.8-12.5-25.4-18.4c-8.6-5.9-17.4-11.6-26.3-17.2
			c-8.9-5.6-17.9-10.9-27-16.2c-9.1-5.3-18.3-10.3-27.5-15.3c-9.3-4.9-18.5-9.9-27.9-14.6c-18.7-9.5-37.6-18.7-56.6-27.5
			c-38.1-17.7-76.7-34.3-115.5-50.4c-38.8-16.1-77.8-31.7-116.9-47.3c-78.1-31.1-156.5-61.7-233.8-95c-38.6-16.7-77-34.1-114.7-52.8
			c-37.7-18.8-74.8-38.9-110.3-61.6c-17.8-11.3-35.1-23.4-51.8-36.3c-16.6-13-32.7-26.8-47.4-42.1c-14.7-15.2-28.1-31.8-39.1-50
			c-10.9-18.2-19.3-38.1-23.5-59.1c-2.1-10.5-3.2-21.1-3.3-31.8c0-5.3,0.3-10.7,0.8-16c0.6-5.3,1.4-10.6,2.5-15.8
			c4.4-20.9,13.2-40.7,24.5-58.7c5.7-9,12-17.6,18.7-25.8c6.7-8.2,13.9-16,21.4-23.5c15-15,31.2-28.6,48-41.4
			c33.7-25.5,69.9-47.4,106.9-67.5c37.1-20,75.1-38.2,113.6-55.3c38.5-17,77.5-33,116.7-48.1c39.2-15.2,78.7-29.6,118.4-43.6
			c79.3-28,159.3-54.1,239.5-79.6c160.3-50.9,321.5-99,481.7-150c80.1-25.5,160-51.7,239.4-79.5c79.3-27.8,158.2-57,235.8-89.2
			c77.6-32.2,154.2-67.2,227.7-107.9c36.7-20.4,72.6-42.2,107-66.3c17.2-12,34-24.6,50.2-38c16.2-13.3,31.8-27.3,46.6-42.2
			c14.8-14.9,28.7-30.6,41.3-47.3c12.6-16.7,23.8-34.4,33.2-53.2c9.3-18.7,16.6-38.4,21.3-58.8c4.8-20.3,6.7-41.3,6.4-62.2
			c-0.4-20.9-3.2-41.7-8.3-62c-5-20.3-12.1-40.1-20.8-59.1c-17.4-38.2-40.9-73.3-67.4-105.8c-13.3-16.2-27.3-31.9-42-46.9
			c-14.6-15-29.8-29.5-45.5-43.5c-31.3-28-64.4-54-98.4-78.6c-68.2-49.1-140.5-92.4-214.7-131.7l1.2-2.3
			c74.4,39.3,146.8,82.6,215.2,131.7c34.2,24.6,67.3,50.6,98.7,78.6c15.7,14,31,28.5,45.7,43.6c14.7,15.1,28.8,30.7,42.2,47
			c26.6,32.6,50.4,67.9,67.9,106.4c8.8,19.2,16,39.2,21,59.7c5.1,20.5,8,41.6,8.4,62.7c0.3,21.1-1.5,42.4-6.4,63
			c-4.8,20.6-12.1,40.6-21.5,59.6c-9.4,18.9-20.8,36.9-33.4,53.7c-12.7,16.9-26.7,32.7-41.5,47.7c-14.9,15-30.6,29.1-46.8,42.5
			c-16.3,13.4-33.1,26.1-50.4,38.2c-34.5,24.2-70.5,46.2-107.3,66.6c-73.6,40.9-150.3,75.9-228,108.2
			c-77.7,32.2-156.6,61.6-236,89.4c-79.4,27.8-159.3,54.1-239.4,79.6c-160.3,51.1-321.4,99.4-481.6,150.3
			c-80.1,25.5-160,51.7-239.3,79.6c-79.2,28-157.9,57.8-234.7,91.8c-38.4,17-76.3,35.1-113.2,55.1c-36.9,20-72.8,41.8-106.3,67.1
			c-16.7,12.6-32.7,26.1-47.5,40.9c-7.4,7.4-14.4,15.1-21.1,23.1c-6.6,8.1-12.8,16.5-18.3,25.3c-11.1,17.6-19.6,36.8-23.8,57.1
			c-4.3,20.2-4.1,41.4,0,61.6c4.1,20.3,12.2,39.7,22.9,57.5c10.7,17.8,23.9,34.2,38.4,49.2c14.5,15,30.3,28.8,46.8,41.6
			c16.5,12.8,33.8,24.8,51.5,36c35.3,22.6,72.3,42.6,109.9,61.3c37.6,18.7,75.9,36,114.4,52.7c77.2,33.3,155.5,63.9,233.6,94.9
			c39.1,15.5,78.1,31.1,117,47.3c38.8,16.1,77.5,32.8,115.7,50.5c19.1,8.9,38.1,18,56.8,27.6c9.4,4.8,18.7,9.7,28,14.6
			c9.3,5,18.5,10.1,27.6,15.4c9.1,5.3,18.2,10.6,27.1,16.2c9,5.6,17.8,11.3,26.5,17.3c8.7,5.9,17.3,12.1,25.7,18.5
			c4.2,3.2,8.3,6.5,12.4,9.8c4.1,3.4,8.1,6.8,12.1,10.3c7.9,7,15.6,14.3,22.9,22c7.3,7.7,14.2,15.8,20.6,24.3
			c12.7,17,23.3,35.8,29.6,56.3c3.2,10.2,5.2,20.8,6.1,31.5c0.9,10.7,0.4,21.5-1.2,32c-3.3,21.2-11.1,41.4-21.6,59.9
			c-10.5,18.5-23.3,35.5-37.4,51.3c-14.1,15.8-29.4,30.4-45.3,44.3c-32,27.6-66.5,52-102,74.7c-35.5,22.7-72.1,43.6-109.3,63.4
			c-37.2,19.8-74.9,38.4-113,56.3c-76.2,35.8-153.7,68.6-231.9,99.7c-78.2,31.1-157,60.5-236.2,88.9c-79.2,28.3-158.8,55.5-238.6,82
			c-79.8,26.5-159.9,52.2-240.2,77.3c-160.5,50.2-321.7,98.3-483.2,145.2c-80.8,23.4-161.6,46.6-242.5,69.4
			c-80.9,22.9-161.9,45.5-243,67.9c-162.1,44.9-324.4,89-486.8,132.6L4562.5,4880.7z"/>
	</g>
	<g class="st4">
		<path d="M5129.8,4920.2c292.3-91.6,583.9-185.4,874.1-283.3c145.1-49,289.8-99.2,433.8-151.1c144-52,287.5-105.7,429.6-162.5
			c71.1-28.4,141.8-57.7,212.1-88.1c35.1-15.2,70.1-30.7,104.9-46.6c34.8-15.9,69.5-32.1,103.9-48.8c68.8-33.4,136.8-68.6,203-107
			c33.1-19.2,65.7-39.2,97.4-60.5c31.7-21.3,62.7-43.7,92.1-68.1c29.3-24.4,57.1-50.7,81-80.4c11.9-14.8,22.7-30.5,31.6-47.2
			c4.4-8.4,8.4-17,11.7-25.8c3.3-8.8,5.9-17.9,7.8-27.2c1.8-9.2,2.8-18.6,2.9-28c0.1-9.4-0.9-18.8-2.7-28
			c-3.6-18.5-10.8-36.1-20.5-52.3c-9.7-16.2-21.6-31.1-34.8-44.7c-6.6-6.8-13.5-13.4-20.6-19.7c-7.1-6.3-14.5-12.3-22-18.2
			c-30.1-23.3-62.8-43.3-96.2-61.8c-33.5-18.4-67.8-35.2-102.6-51.2c-34.8-16-69.9-31.1-105.2-45.8c-35.3-14.8-70.8-29.2-106.2-43.6
			c-35.5-14.4-70.9-28.9-106.3-43.7c-35.3-14.8-70.5-30-105.3-46.1c-34.8-16.1-69.2-33-102.9-51.5c-16.8-9.3-33.4-18.9-49.6-29.2
			c-16.3-10.2-32.2-21-47.6-32.6c-7.7-5.8-15.2-11.8-22.6-17.9c-7.3-6.2-14.5-12.7-21.5-19.3c-6.9-6.7-13.6-13.7-20-20.9
			c-1.6-1.8-3.2-3.6-4.7-5.5l-4.6-5.6l-4.4-5.7c-1.5-1.9-2.8-3.9-4.3-5.9c-11.1-15.8-20.6-32.9-27-51.3c-6.4-18.3-9.9-37.7-9.8-57.2
			l0.1-7.3l0.6-7.3c0.1-2.4,0.6-4.8,0.9-7.2l0.5-3.6c0.1-0.6,0.2-1.2,0.3-1.8l0.4-1.8l1.5-7.1c0.6-2.4,1.3-4.7,1.9-7l1-3.5l1.2-3.4
			c0.8-2.3,1.5-4.6,2.4-6.9c1.9-4.5,3.6-9,5.8-13.3l1.6-3.3l0.8-1.6l0.9-1.6l3.5-6.4c0.6-1.1,1.2-2.1,1.8-3.1l1.9-3.1
			c1.3-2,2.5-4.2,3.9-6.1l4.1-6l1-1.5l1.1-1.5l2.2-2.9c5.7-7.8,12-15.1,18.4-22.3l5-5.3c1.7-1.7,3.3-3.5,5-5.2l5.1-5.1l2.6-2.5
			l2.6-2.5c14-13.2,28.9-25.4,44.3-36.9c30.8-23,63.5-43.2,97-62c16.7-9.4,33.7-18.3,50.8-27c17.1-8.7,34.3-17.1,51.7-25.2
			c69.4-32.6,140.4-61.6,211.7-89.4c71.4-27.8,143.3-54.2,215.2-80.4c72-26.2,144-52.2,215.8-78.7c71.8-26.6,143.4-53.7,214.4-82.4
			c35.5-14.4,70.8-29,105.9-44.3c35.1-15.2,69.9-31.1,104.4-47.6c17.2-8.3,34.4-16.7,51.4-25.4c8.5-4.3,17-8.8,25.5-13.2
			c8.4-4.5,16.9-8.9,25.3-13.6c8.4-4.5,16.7-9.2,25.1-13.9l12.4-7.1l6.2-3.6l6.2-3.6c16.5-9.7,32.8-19.7,48.8-30.1
			c8.1-5.1,16-10.5,23.9-15.8l11.8-8.1c4-2.7,7.8-5.5,11.7-8.3c15.5-11.2,30.8-22.7,45.6-34.7c29.6-24.2,57.6-50.2,82.6-79
			c25-28.8,46.9-60.4,63.2-94.8c8.1-17.2,14.9-35.1,19.8-53.4c5-18.4,8.1-37.2,9.6-56.1c2.9-37.9-1-76.3-10.7-113.1
			c-9.7-36.8-24.8-72.2-43.5-105.4c-9.3-16.7-19.5-32.8-30.4-48.5c-10.9-15.7-22.5-30.9-34.5-45.7c-12.1-14.8-24.8-29.1-37.8-43
			c-13.1-13.9-26.6-27.4-40.4-40.6c-13.9-13.1-28.1-25.9-42.6-38.4c-14.5-12.4-29.3-24.5-44.4-36.3c-30.1-23.6-61.2-45.8-93.1-67
			l2-3.1c32,21.2,63.2,43.5,93.4,67.1c15.1,11.8,30,23.9,44.5,36.4c14.6,12.5,28.8,25.3,42.8,38.5c13.9,13.2,27.5,26.8,40.6,40.7
			c13.1,14,25.8,28.4,38,43.2c12.2,14.9,23.8,30.1,34.8,45.9c10.9,15.8,21.3,32,30.6,48.8c18.8,33.5,34.1,69.1,43.9,106.4
			c9.9,37.2,13.9,76.1,10.9,114.5c-1.4,19.2-4.6,38.3-9.6,56.9c-5,18.6-11.8,36.7-20,54.1c-16.5,34.9-38.6,66.8-63.8,95.8
			c-25.2,29-53.4,55.3-83.1,79.6c-14.9,12.1-30.2,23.7-45.7,34.9c-3.9,2.8-7.8,5.6-11.7,8.3l-11.8,8.2c-8,5.3-15.9,10.7-24,15.9
			c-16.1,10.4-32.4,20.5-49,30.2l-6.2,3.7l-6.2,3.6l-12.5,7.2c-8.4,4.7-16.7,9.4-25.1,13.9c-8.4,4.6-16.9,9.1-25.3,13.6
			c-8.5,4.4-17,8.9-25.5,13.2c-17.1,8.7-34.3,17.2-51.5,25.5c-34.6,16.6-69.4,32.4-104.6,47.7c-35.1,15.3-70.5,30-106,44.4
			c-71,28.7-142.6,55.9-214.5,82.5c-71.8,26.6-143.9,52.6-215.8,78.8c-71.9,26.2-143.8,52.7-215.1,80.4
			c-71.3,27.8-142.2,56.9-211.4,89.4c-17.3,8.1-34.5,16.5-51.5,25.2c-17,8.7-33.9,17.6-50.6,26.9c-33.3,18.7-65.8,38.9-96.4,61.7
			c-15.3,11.4-30,23.5-43.9,36.6l-2.6,2.4l-2.5,2.5l-5.1,5c-1.7,1.6-3.3,3.4-4.9,5.1l-4.9,5.2c-6.3,7.1-12.5,14.3-18.1,22l-2.1,2.8
			l-1.1,1.4l-1,1.5l-4,5.9c-1.4,1.9-2.5,4-3.8,6l-1.9,3c-0.6,1-1.2,2-1.8,3.1l-3.4,6.2l-0.8,1.6l-0.8,1.6l-1.5,3.2
			c-2.1,4.2-3.8,8.6-5.7,13c-0.9,2.2-1.6,4.4-2.4,6.7l-1.2,3.3l-1,3.4c-0.6,2.3-1.3,4.5-1.9,6.8l-1.5,6.9l-0.4,1.7
			c-0.1,0.6-0.2,1.2-0.3,1.7l-0.5,3.5c-0.3,2.3-0.7,4.6-0.9,7l-0.6,7l-0.1,7.1c-0.1,18.8,3.3,37.7,9.5,55.5
			c6.3,17.8,15.5,34.5,26.4,50c1.4,1.9,2.7,3.9,4.2,5.8l4.3,5.6l4.5,5.5c1.5,1.8,3.1,3.6,4.6,5.4c6.3,7.1,12.8,14,19.7,20.6
			c6.9,6.6,13.9,12.9,21.2,19.1c7.3,6.1,14.8,12,22.4,17.8c15.3,11.4,31,22.2,47.2,32.3c16.1,10.2,32.7,19.8,49.4,29
			c33.5,18.4,67.8,35.3,102.5,51.3c34.7,16,69.9,31.2,105.1,46c35.3,14.8,70.7,29.2,106.2,43.6c35.5,14.4,71,28.8,106.3,43.6
			c35.3,14.8,70.6,29.9,105.4,45.9c34.8,16,69.3,32.8,102.9,51.3c33.6,18.6,66.4,38.7,96.9,62.2c7.6,5.9,15,12,22.3,18.4
			c7.2,6.4,14.2,13,20.9,20c13.4,13.8,25.6,29.1,35.6,45.7c9.9,16.6,17.4,34.9,21.2,54.1c1.9,9.6,2.8,19.3,2.8,29.1
			c0,9.8-1.1,19.5-2.9,29c-1.9,9.6-4.6,18.9-8,28c-3.4,9.1-7.5,17.9-12,26.4c-9.1,17.1-20.1,33-32.1,48.1
			c-24.2,30.1-52.3,56.6-81.7,81.2c-29.6,24.5-60.7,47.1-92.5,68.4c-31.9,21.4-64.6,41.4-97.7,60.7
			c-66.3,38.5-134.5,73.7-203.4,107.1c-34.5,16.7-69.2,33-104,48.8c-34.9,15.9-69.9,31.4-105,46.6c-70.3,30.4-141.1,59.7-212.2,88.1
			c-71.1,28.4-142.6,56.1-214.2,83.1c-71.7,27-143.6,53.4-215.6,79.4c-144.1,51.9-288.9,101.9-434,150.8
			c-145.1,48.9-290.7,96.7-436.5,143.6c-145.8,46.9-291.8,93.1-438,138.7L5129.8,4920.2z"/>
	</g>
	<g class="st5">
		<path d="M5697.1,4959.7c261.8-92.4,522.7-187.3,781.9-286.5c129.6-49.7,258.8-100.4,387.3-152.9
			c128.5-52.4,256.3-106.5,383.1-163.1c63.3-28.3,126.4-57.3,189-87.1c62.6-29.8,124.9-60.5,186.5-92.4c30.8-16,61.4-32.2,91.9-48.9
			c30.4-16.7,60.6-33.7,90.6-51.1c59.9-35,118.7-71.8,175.4-111.7c28.3-20,56-40.8,82.8-62.8c26.7-22,52.5-45.1,76.5-70
			c6-6.2,11.8-12.6,17.6-19c5.7-6.5,11.3-13,16.7-19.8c10.8-13.4,20.8-27.5,29.8-42.2c4.4-7.4,8.6-14.9,12.5-22.6
			c3.8-7.7,7.2-15.6,10.3-23.6c6-16,10.1-32.8,11.6-49.8c0.7-8.5,0.8-17,0.1-25.5c-0.7-8.5-2-16.9-4.1-25.2
			c-4-16.6-10.9-32.4-19.6-47.1c-4.4-7.4-9.2-14.5-14.3-21.3c-5.2-6.8-10.8-13.4-16.6-19.7c-1.5-1.6-2.9-3.2-4.4-4.7l-4.5-4.6
			c-3.1-3-6.1-6-9.3-8.9c-6.3-5.8-12.8-11.5-19.5-16.9c-26.8-21.8-55.9-40.6-85.8-57.9c-30-17.3-60.9-33-92.1-47.9
			c-125.3-59.5-256-107-381.4-167.2c-31.3-15.1-62.3-31-92.4-48.5c-30.1-17.5-59.4-36.6-86.5-58.5c-6.8-5.5-13.4-11.1-19.9-17
			c-6.5-5.9-12.8-12-18.8-18.3c-6-6.3-11.8-12.9-17.3-19.7c-5.5-6.9-10.6-14-15.4-21.3c-9.6-14.7-17.3-30.7-22.8-47.4
			c-5.5-16.7-8.4-34.3-8.7-52l0-6.6c0.1-2.2,0.2-4.4,0.3-6.6c0.1-1.1,0.1-2.2,0.2-3.3l0.4-3.3l0.4-3.3l0.2-1.6l0.3-1.6l1.1-6.5
			c0.4-2.2,0.9-4.3,1.4-6.5c0.2-1.1,0.5-2.2,0.7-3.2l0.9-3.2c0.6-2.1,1.1-4.3,1.8-6.4c2.6-8.4,5.9-16.6,9.6-24.6
			c2-3.9,3.8-7.9,6-11.7c1.1-1.9,2.1-3.9,3.2-5.7l3.4-5.6c1.1-1.9,2.4-3.7,3.6-5.5c1.2-1.8,2.4-3.7,3.7-5.5
			c2.6-3.6,5.1-7.2,7.8-10.6c5.3-7,11-13.6,16.8-20.1c11.8-12.9,24.4-25,37.6-36.5c26.4-22.9,54.8-43.1,84-62.1
			c29.2-18.9,59.3-36.3,89.8-53c30.5-16.7,61.5-32.4,92.6-47.8c31.2-15.3,62.5-30.2,94-44.9c63-29.3,126.3-57.6,189.5-86.4
			c63.2-28.8,126.1-57.9,188.4-88.5c62.2-30.6,123.8-62.7,183.6-97.8c59.8-35.1,117.9-73.1,172.1-116.1c27-21.6,53.1-44.5,77.4-69
			c24.3-24.6,47-50.8,66.9-79c10-14.1,19.3-28.7,27.7-43.7c8.4-15,16-30.6,22.6-46.5c13.2-31.9,22.4-65.4,26.7-99.6
			c0.5-4.3,1.1-8.5,1.6-12.8l1-12.9l0.5-6.4c0.1-2.2,0.1-4.3,0.2-6.5l0.4-12.9c0.1-2.2,0-4.3,0-6.5l-0.1-6.5l-0.1-6.5
			c0-1.1,0-2.2-0.1-3.2l-0.2-3.2l-0.9-12.9l-0.2-3.2c-0.1-1.1-0.2-2.1-0.3-3.2l-0.7-6.4l-0.7-6.4c-0.3-2.1-0.4-4.3-0.8-6.4l-2-12.8
			c-0.4-2.1-0.6-4.3-1.1-6.4l-1.3-6.3c-0.9-4.2-1.7-8.5-2.6-12.7l-3.1-12.6l-1.6-6.3l-1.8-6.2l-3.6-12.4c-1.3-4.1-2.7-8.2-4-12.3
			c-10.9-32.8-25.2-64.4-41.5-94.9c-2-3.8-4.1-7.6-6.3-11.4c-2.1-3.8-4.2-7.5-6.4-11.3l-6.7-11.1l-3.4-5.5l-3.5-5.5l-7-10.9
			l-7.2-10.8l-3.6-5.4l-3.7-5.3l-7.5-10.6c-40.7-56-87.7-107.4-138.7-154.2l3.3-3.7c12.8,11.8,25.4,23.8,37.7,36.1
			c3.1,3.1,6.1,6.2,9.1,9.3l4.6,4.7l4.5,4.7l8.9,9.5l8.8,9.6c3,3.2,5.8,6.5,8.7,9.7c2.9,3.3,5.8,6.5,8.6,9.8
			c5.6,6.7,11.3,13.2,16.7,20c11.1,13.4,21.6,27.3,31.9,41.3l7.6,10.6l3.8,5.3l3.6,5.4l7.3,10.8l7,11l3.5,5.5l3.4,5.6l6.7,11.2
			c2.2,3.8,4.3,7.6,6.5,11.3c2.1,3.8,4.3,7.6,6.3,11.4c16.4,30.7,30.9,62.5,41.9,95.6c1.4,4.1,2.8,8.3,4.1,12.4l3.6,12.6l1.8,6.3
			l1.6,6.3l3.1,12.7c0.9,4.3,1.8,8.5,2.6,12.8l1.3,6.4c0.4,2.1,0.7,4.3,1.1,6.5l2.1,12.9c0.4,2.1,0.6,4.3,0.8,6.5l0.7,6.5l0.7,6.5
			c0.1,1.1,0.3,2.2,0.3,3.3l0.2,3.3l0.9,13.1l0.2,3.3c0.1,1.1,0.1,2.2,0.1,3.3l0.1,6.5l0.1,6.5c0,2.2,0.2,4.4,0,6.5l-0.4,13.1
			c-0.1,2.2-0.1,4.4-0.2,6.5l-0.5,6.5l-1,13.1c-0.5,4.3-1.1,8.7-1.6,13c-4.3,34.7-13.7,68.7-27,100.9c-6.7,16.1-14.4,31.8-22.9,47.1
			c-8.5,15.2-17.9,29.9-28,44.2c-20.2,28.5-43,54.9-67.5,79.7c-24.5,24.8-50.7,47.8-77.9,69.5c-54.5,43.3-112.8,81.5-172.7,116.6
			c-60,35.1-121.6,67.3-183.9,98c-62.3,30.7-125.4,59.8-188.5,88.6c-63.2,28.8-126.5,57.1-189.4,86.4
			c-31.5,14.6-62.8,29.5-93.9,44.8c-31.1,15.3-62,31.1-92.4,47.7c-30.4,16.6-60.4,34-89.5,52.8c-29,18.8-57.3,38.9-83.3,61.6
			c-13,11.3-25.5,23.3-37.1,36c-5.7,6.4-11.4,12.9-16.5,19.8c-2.7,3.4-5.1,6.9-7.6,10.4c-1.3,1.7-2.4,3.6-3.6,5.3
			c-1.2,1.8-2.4,3.5-3.5,5.4l-3.3,5.5c-1.1,1.8-2.1,3.7-3.1,5.6c-2.1,3.7-3.9,7.6-5.9,11.4c-3.5,7.8-6.8,15.7-9.3,23.9
			c-0.7,2-1.2,4.1-1.7,6.2l-0.8,3.1c-0.3,1-0.5,2.1-0.7,3.1c-0.4,2.1-0.9,4.2-1.3,6.3l-1,6.3l-0.3,1.6l-0.2,1.6l-0.3,3.2l-0.3,3.2
			c-0.1,1.1-0.1,2.1-0.2,3.2c-0.1,2.1-0.2,4.3-0.3,6.4l0,6.4c0.3,17.1,3.1,34.1,8.5,50.3c5.3,16.2,12.9,31.7,22.2,46.1
			c4.7,7.2,9.7,14.1,15.1,20.9c5.4,6.7,11.1,13.1,17,19.4c5.9,6.3,12.1,12.2,18.5,18c6.3,5.8,12.9,11.4,19.6,16.8
			c26.8,21.7,55.9,40.6,85.8,58c29.9,17.4,60.8,33.2,92,48.3c125,59.9,255.8,107.5,381.4,167.1c31.4,15,62.4,30.8,92.5,48.1
			c15.1,8.7,29.9,17.8,44.4,27.5c3.6,2.4,7.2,4.9,10.8,7.4c3.5,2.5,7.1,5,10.6,7.6c7.1,5.1,14,10.5,20.7,16
			c6.8,5.5,13.4,11.2,19.8,17.2c3.2,2.9,6.3,6,9.5,9.1l4.6,4.7c1.5,1.6,3,3.2,4.5,4.8c5.9,6.4,11.6,13.1,17,20.1
			c5.3,7,10.2,14.3,14.7,21.9c9,15.1,16.1,31.5,20.2,48.7c2.1,8.6,3.5,17.3,4.2,26.1c0.7,8.8,0.6,17.7-0.1,26.5
			c-1.5,17.6-5.7,34.9-11.9,51.3c-3.1,8.2-6.6,16.3-10.5,24.1c-3.9,7.8-8.2,15.5-12.7,23c-9.1,14.9-19.3,29.2-30.2,42.8
			c-5.4,6.8-11.1,13.5-16.8,20c-5.8,6.5-11.7,12.9-17.7,19.2c-24.2,25.1-50.1,48.4-77,70.5c-26.9,22.1-54.7,43-83.1,63
			c-56.8,40.1-115.8,76.9-175.8,112c-30,17.5-60.3,34.5-90.7,51.2c-30.5,16.6-61.2,32.9-92,48.9c-61.7,31.9-124,62.6-186.7,92.5
			c-62.7,29.8-125.8,58.8-189.2,87.1c-126.8,56.6-254.7,110.6-383.3,163.1c-128.6,52.4-257.8,103.2-387.4,152.8
			c-129.7,49.6-259.8,98.1-390.2,145.7c-130.4,47.6-261.1,94.3-392.1,140.4L5697.1,4959.7z"/>
	</g>
	<path class="st6" d="M6265.5,5002.1c1919-746.8,2451.4-1180,2401.3-1441.8c-55.2-288.3-810.2-334.4-824.2-644
		c-15.3-337.1,870.8-481.6,970.4-1039.5c40.1-224.8-63.1-428.7-137.2-546.5"/>
</g>
<g>
	<path class="st7" d="M1249.7-236.6c-211.5,334.1-417.8,771-251.2,1072.3c174.9,316.5,645.1,274.2,680.2,435.1
		c37.3,171.3-432.4,513.5-2500.1,1250"/>
	<path class="st8" d="M995.4-242.7C767.1,57.7,545.6,450.7,675.2,748.4c142.4,327.1,618.1,325.5,651.1,525.4
		c29.2,176.6-362.7,498.7-2089.5,1136.7"/>
	<path class="st9" d="M741.1-248.9C496.1,17.8,258,368,352,661.1c108.6,338.8,592.3,376.5,622,615.8c22.5,181.5-293,484-1679,1023.3
		"/>
	<path class="st10" d="M486.8-255c-261.7,232.8-518,540.8-458,828.8c73.1,351,567.8,427.3,592.9,706.2
		c16.7,186.3-223.3,469.2-1268.4,910"/>
	<path class="st11" d="M232.5-261.1C-45.9-62-322,203.6-294.5,486.5c35.3,363.3,544.5,478.1,563.7,796.6
		c11.5,191.2-153.6,454.5-857.9,796.6"/>
</g>
</svg>
