<svg xmlns="http://www.w3.org/2000/svg" viewBox="0 0 67.78 45.99"><defs><style>.cls-1{fill:#fff;}</style></defs><title>co brand white logo</title><g id="Layer_2" data-name="Layer 2"><g id="Layer_1-2" data-name="Layer 1"><path class="cls-1" d="M0,30C0,20.4,4.1,13,17.31,13c8.47,0,14.84,4.39,14.84,12H30c-1.93-3-5.79-4.26-12.57-4.26-6.46,0-14.66,1.85-14.66,9.69C2.72,36,6.09,40,16.08,40c7.41,0,12.79-1.66,13.87-5.3h2.2C30.45,42.44,25.4,46,15.84,46,5.88,46,0,39.83,0,30Z"/><path class="cls-1" d="M51.7,13c-12.23.45-16.07,7.7-16.07,17,0,9.88,5.58,16,15.84,16h.47c10.25,0,15.84-6.16,15.84-16C67.78,20.7,63.94,13.45,51.7,13Zm0,27c-10,0-13.35-1.89-13.35-9.43,0-9.44,7.14-9.93,13.35-9.95s13.36.51,13.36,10C65.06,38.15,61.68,40,51.7,40Z"/><rect class="cls-1" x="63.41" width="2.2" height="11.35"/><polyline class="cls-1" points="51.75 9.44 43.48 12.03 42.71 9.78 51.75 6.86"/><polyline class="cls-1" points="51.75 9.44 60.03 12.03 60.79 9.78 51.75 6.86"/></g></g></svg>