<svg xmlns="http://www.w3.org/2000/svg" viewBox="0 0 300.79 204.12"><title>Asset 1</title><g id="Layer_2" data-name="Layer 2"><g id="Layer_1-2" data-name="Layer 1"><path d="M0,132.93c0-42.4,18.2-75.37,76.8-75.37,37.59,0,65.9,19.47,65.9,53h-9.78c-8.55-13.16-25.68-18.9-55.78-18.9-28.7,0-65,8.21-65,43,0,25,15,43,59.26,43,32.91,0,56.76-7.38,61.57-23.52h9.78c-7.55,34.16-30,49.91-72.39,49.91C26.08,204.1,0,176.75,0,132.93Z"/><path d="M229.45,57.68c-54.29,2-71.34,34.2-71.34,75.25,0,43.83,24.77,71.08,70.3,71.19h2.08c45.53-.11,70.3-27.36,70.3-71.19C300.79,91.88,283.74,59.67,229.45,57.68Zm0,120c-44.3,0-59.28-8.4-59.28-41.86,0-41.93,31.71-44.09,59.28-44.17,27.57.08,59.27,2.24,59.27,44.17C288.72,169.32,273.75,177.72,229.45,177.72Z"/><rect x="281.42" width="9.77" height="50.39"/><polyline points="229.68 38.88 192.94 50.39 189.56 40.37 229.68 27.42"/><polyline points="229.68 38.88 266.41 50.39 269.79 40.37 229.68 27.42"/></g></g></svg>